<svg width="425" height="425" viewBox="0 0 425 425" fill="none" xmlns="http://www.w3.org/2000/svg">
<g clip-path="url(#clip0_0_38)">
<path d="M244.261 360.98C242.79 359.494 240.591 358.98 238.629 359.67C225.784 364.03 209.106 366.339 190.382 366.339C137.751 366.339 80.9507 348.09 80.9507 318.597C80.9507 316.368 79.6166 314.389 77.5714 313.547C75.5262 312.705 73.164 313.164 71.6093 314.721C39.8415 346.497 47.2748 417.132 47.6132 420.143C47.913 422.91 50.2644 425.002 53.0549 425.002H279.651C279.696 425.002 279.743 425.002 279.788 425.002C282.822 425.002 285.268 422.55 285.268 419.53C285.268 418.535 285 417.592 284.531 416.779C282.728 411.367 274.489 391.241 244.261 360.98ZM58.0811 414.042C57.1452 399.702 55.9652 357.089 72.4059 331.206C84.3922 361.244 138.809 377.308 190.376 377.308C208.754 377.308 225.424 375.168 238.852 371.093C258.426 391.104 267.478 405.981 271.472 414.044L58.0811 414.042Z" fill="#FF2E63"/>
<path d="M302.45 140.694C300.227 141.43 298.71 143.523 298.71 145.883C298.71 146.281 298.755 146.694 298.802 146.694C298.802 155.057 296.22 163.156 291.391 170.125C290.142 171.95 290.071 174.34 291.275 176.203C317.785 217.567 321.173 254.723 300.319 275.586C293.26 282.659 282.882 286.232 269.485 286.232C234.198 286.232 188.365 262.342 149.883 223.882C96.0723 170.039 71.922 99.7428 98.1646 73.4616C105.223 66.4031 115.608 62.816 129.02 62.816C159.531 62.816 186.51 73.301 216.5 96.8153C218.278 98.218 220.685 98.3786 222.623 97.2522C229.123 93.513 235.974 91.6199 242.987 91.6199C243.807 91.6199 244.613 91.7419 245.409 91.8576L247.257 92.0803C247.433 92.1039 247.617 92.1039 247.795 92.1039C247.863 92.1039 247.887 92.1039 247.887 92.1039C250.954 92.1039 253.406 89.6582 253.406 86.6322C253.406 84.6234 252.333 82.8695 250.731 81.9186C211.243 47.1055 170.286 29.4548 129.014 29.4548C110.367 29.4548 91.1895 36.5519 74.5582 49.8574C66.0048 58.4194 60.0642 69.3242 56.854 82.3148C38.8349 111.393 29.3157 145.086 29.3157 179.843C29.3157 276.391 101.268 354.92 189.707 354.92C225.859 354.92 259.965 342.028 288.484 317.625C302.756 314.643 314.665 308.465 323.925 299.216C359.749 263.377 353.87 203.381 308.566 142.625C307.178 140.717 304.717 139.957 302.45 140.694ZM316.183 291.435C308.189 299.43 297.689 304.702 284.951 307.131C284.015 307.307 283.126 307.752 282.392 308.379C255.704 331.647 223.638 343.966 189.716 343.966C107.324 343.966 40.2848 270.335 40.2848 179.835C40.2848 146.84 49.3907 114.873 66.6109 87.3796C66.9321 86.8656 67.1549 86.2981 67.3005 85.7327C69.9667 74.3589 75.0251 64.8783 81.8309 58.0103C95.8795 46.8121 113.07 40.3982 129.005 40.3982C164.062 40.3982 199.111 54.2476 233.331 81.5931C228.924 82.4754 224.602 83.9317 220.417 86.0154C189.485 62.4026 161.156 51.8641 128.999 51.8641C112.582 51.8641 99.5908 56.5155 90.3929 65.7135C58.9463 97.1901 82.1307 171.62 142.096 231.622C182.557 272.067 231.348 297.198 269.461 297.198C285.893 297.198 298.869 292.538 308.043 283.334C332.262 259.115 330.054 218.149 302.364 173.29C304.762 169.281 306.596 165.005 307.821 160.597C342.28 212.547 345.728 261.897 316.183 291.435Z" fill="#FF2E63"/>
<path d="M237.042 253.674C246.255 253.674 253.742 246.17 253.742 236.974V182.311C273.247 179.627 288.315 162.844 288.315 142.602C288.315 120.505 270.35 102.54 248.262 102.54C227.998 102.54 211.236 117.608 208.553 137.128H154.811C145.606 137.128 138.111 144.608 138.111 153.813C138.111 163.017 145.606 170.498 154.811 170.498H219.704C219.927 170.72 220.15 170.943 220.349 171.157V236.972C220.34 246.178 227.853 253.674 237.042 253.674ZM154.811 159.548C151.646 159.548 149.063 156.98 149.063 153.815C149.063 150.658 151.646 148.082 154.811 148.082H213.65C216.693 148.082 219.145 145.63 219.145 142.602C219.145 126.553 232.213 113.485 248.262 113.485C264.319 113.485 277.363 126.553 277.363 142.602C277.363 158.651 264.319 171.718 248.262 171.718C245.234 171.718 242.782 174.17 242.782 177.199V236.972C242.782 240.137 240.199 242.705 237.04 242.705C233.883 242.705 231.299 240.137 231.299 236.972V168.752C231.299 167.159 230.624 165.671 229.429 164.621C228.294 163.632 227.245 162.591 226.264 161.456C225.244 160.229 223.705 159.539 222.103 159.539H154.811V159.548Z" fill="#FF2E63"/>
<path d="M329.748 129.855H337.044C337.044 90.5919 305.099 58.6313 265.827 58.6313V65.9362C301.077 65.9276 329.748 94.6073 329.748 129.855Z" fill="#FF2E63"/>
<path d="M266.028 0V7.31127C333.504 7.31127 388.388 62.2036 388.388 129.671H395.684C395.684 58.171 337.52 0 266.028 0Z" fill="#FF2E63"/>
</g>
<defs>
<clipPath id="clip0_0_38">
<rect width="425" height="425" fill="white"/>
</clipPath>
</defs>
</svg>
